<svg version="1.1" xmlns="http://www.w3.org/2000/svg" width="198.3" height="32.1" viewBox="0,0,198.3,32.1"><rect x="0" y="0" width="198.3" height="32.1" fill="#000" fill-opacity="0"></rect><g transform="translate(8,8)"><path d="M4.9 2V13.9H3.3V2ZM9.4 13.3 9.6 13.9H4.8V13.3ZM10.6 10.9 9.6 13.9H6.6L7.3 13.3Q8.1 13.3 8.7 13Q9.3 12.7 9.7 12.2Q10.1 11.6 10.4 10.9ZM3.4 12.7V13.9H2V13.7Q2 13.7 2.1 13.7Q2.2 13.7 2.2 13.7Q2.7 13.7 3 13.4Q3.3 13.1 3.3 12.7ZM3.4 3.2H3.3Q3.3 2.8 3 2.5Q2.7 2.2 2.2 2.2Q2.2 2.2 2.1 2.2Q2 2.2 2 2.2V2H3.4ZM4.8 3.2V2H6.2V2.2Q6.2 2.2 6.1 2.2Q6 2.2 6 2.2Q5.5 2.2 5.2 2.5Q4.9 2.8 4.9 3.2ZM14.5 3.7V13.9H12.9V3.7ZM18.9 13.3 19 13.9H14.5V13.3ZM18.1 8.5V9.1H14.5V8.5ZM18.9 3.7V4.3H14.5V3.7ZM19.9 11.2 19 13.9H16.3L16.9 13.3Q17.7 13.3 18.2 13.1Q18.8 12.8 19.1 12.3Q19.5 11.8 19.7 11.2ZM18.1 9.1V10.2H18V10Q18 9.6 17.7 9.4Q17.5 9.1 17.1 9.1V9.1ZM18.1 7.4V8.6H17.1V8.5Q17.5 8.5 17.7 8.3Q18 8 18 7.6V7.4ZM18.9 4.2V5.6H18.7V5.4Q18.7 4.9 18.5 4.6Q18.2 4.3 17.7 4.3V4.2ZM18.9 3.4V3.9L17 3.7Q17.6 3.7 18.1 3.6Q18.7 3.5 18.9 3.4ZM13 12.8 13.2 13.9H11.8V13.7Q11.8 13.7 11.9 13.7Q12 13.7 12 13.7Q12.4 13.7 12.7 13.5Q12.9 13.2 12.9 12.8ZM13 4.8H12.9Q12.9 4.4 12.7 4.1Q12.4 3.9 12 3.9Q12 3.9 11.9 3.9Q11.8 3.9 11.8 3.9V3.7H13.2ZM25.9 3.4 30.7 13.8H28.9L25.4 5.4ZM22.7 12.7Q22.5 13.2 22.7 13.5Q23 13.7 23.3 13.7H23.4V13.9H20.1V13.7Q20.1 13.7 20.2 13.7Q20.3 13.7 20.3 13.7Q20.6 13.7 21 13.5Q21.3 13.3 21.6 12.7ZM25.9 3.4 26 4.9 22.2 13.8H21.1L25.1 5.2Q25.1 5.2 25.2 5Q25.3 4.8 25.4 4.4Q25.6 4.1 25.7 3.9Q25.8 3.6 25.8 3.4ZM27.8 10.1V10.7H23.3V10.1ZM28.4 12.7H30.2Q30.5 13.3 30.9 13.5Q31.2 13.7 31.6 13.7Q31.6 13.7 31.6 13.7Q31.7 13.7 31.7 13.7V13.9H27.7V13.7H27.9Q28.1 13.7 28.4 13.5Q28.6 13.2 28.4 12.7ZM34.8 3.7H36.6Q37.9 3.7 38.8 4.1Q39.6 4.4 40.1 5.1Q40.5 5.7 40.5 6.6Q40.6 7.6 40.1 8.3Q39.7 9 39 9.3Q38.2 9.7 37.4 9.7Q36.5 9.7 35.7 9.2V9.1Q35.7 9.1 35.9 9.1Q36.2 9.1 36.5 9.1Q36.9 9.1 37.3 8.9Q37.8 8.8 38.2 8.4Q38.5 8 38.8 7.3Q38.8 7.1 38.8 6.9Q38.9 6.6 38.9 6.4Q38.9 5.4 38.2 4.8Q37.5 4.3 36.4 4.3H35Q35 4.3 35 4.1Q34.9 4 34.9 3.8Q34.8 3.7 34.8 3.7ZM35 3.7V13.9H33.5V3.7ZM33.5 12.8 33.7 13.9H32.3V13.7Q32.3 13.7 32.4 13.7Q32.5 13.7 32.5 13.7Q32.9 13.7 33.2 13.5Q33.5 13.2 33.5 12.8ZM33.5 4.8H33.5Q33.5 4.4 33.2 4.1Q32.9 3.9 32.5 3.9Q32.5 3.9 32.4 3.9Q32.3 3.9 32.3 3.9V3.7H33.7ZM35 12.8H35Q35 13.2 35.3 13.5Q35.6 13.7 36 13.7Q36 13.7 36.1 13.7Q36.2 13.7 36.2 13.7V13.9H34.8ZM45.1 3.5Q45.5 3.5 45.9 3.5Q46.3 3.5 46.7 3.6Q47 3.6 47.2 3.7Q47.5 3.7 47.6 3.8L47.6 5.6H47.4Q47.4 4.9 46.9 4.5Q46.4 4 45.4 4Q44.5 4 44 4.5Q43.4 4.9 43.4 5.6Q43.4 5.8 43.5 6Q43.6 6.3 43.8 6.5Q43.9 6.7 44.2 6.9L47.4 9.2Q47.9 9.5 48.1 10.1Q48.4 10.7 48.4 11.3Q48.4 12.1 47.9 12.8Q47.5 13.4 46.7 13.8Q46 14.1 45 14.1Q44.5 14.1 43.9 14Q43.3 13.9 42.8 13.7Q42.3 13.6 42 13.3Q42 13 42 12.6Q42 12.2 42.1 11.8Q42.1 11.3 42.3 11H42.5Q42.4 11.8 42.7 12.4Q43 12.9 43.6 13.3Q44.2 13.6 45 13.6Q46 13.5 46.6 13.1Q47.2 12.6 47.2 11.8Q47.2 11.4 47 11Q46.8 10.7 46.3 10.4L43.2 8.1Q42.6 7.7 42.4 7.1Q42.2 6.6 42.2 6Q42.2 5.2 42.6 4.7Q43 4.1 43.6 3.8Q44.3 3.5 45.1 3.5ZM47.6 3.6V3.9H46.2V3.6ZM57.2 3.7V13.9H55.6V3.7ZM55.7 12.8V13.9H54.3V13.7Q54.3 13.7 54.4 13.7Q54.5 13.7 54.5 13.7Q55 13.7 55.3 13.5Q55.6 13.2 55.6 12.8ZM57.1 12.8H57.2Q57.2 13.2 57.5 13.5Q57.8 13.7 58.3 13.7Q58.3 13.7 58.4 13.7Q58.5 13.7 58.5 13.7L58.5 13.9H57.1ZM57.1 4.8V3.7H58.5L58.5 3.9Q58.5 3.9 58.4 3.9Q58.3 3.9 58.3 3.9Q57.8 3.9 57.5 4.1Q57.2 4.4 57.2 4.8ZM55.7 4.8H55.6Q55.6 4.4 55.3 4.1Q55 3.9 54.5 3.9Q54.5 3.9 54.4 3.9Q54.3 3.9 54.3 3.9V3.7H55.7ZM61 3.4 70.6 12.3 70.8 14.1 61.2 5.3ZM61.1 12.8V13.9H59.8V13.7Q59.8 13.7 59.9 13.7Q60.1 13.7 60.1 13.7Q60.5 13.7 60.8 13.5Q61 13.2 61 12.8ZM62.3 12.8Q62.3 13.2 62.6 13.5Q62.9 13.7 63.3 13.7Q63.3 13.7 63.4 13.7Q63.5 13.7 63.5 13.7V13.9H62.3V12.8ZM61 3.4 62.3 4.9 62.3 13.9H61V5.5Q61 4.7 60.9 4Q60.9 3.4 60.9 3.4ZM70.8 3.7V12Q70.8 12.6 70.8 13.1Q70.9 13.5 70.9 13.8Q71 14.1 71 14.1H70.8L69.5 12.6V3.7ZM70.7 4.8V3.7H72V3.9Q72 3.9 71.9 3.9Q71.7 3.9 71.7 3.9Q71.4 3.9 71.1 4.1Q70.8 4.4 70.8 4.8ZM69.5 4.8Q69.5 4.4 69.2 4.1Q69 3.9 68.6 3.9Q68.6 3.9 68.4 3.9Q68.3 3.9 68.3 3.9V3.7H69.6V4.8ZM78.3 3.8V13.9H76.7V3.8ZM82.3 3.7V4.2H72.8V3.7ZM82.3 4.2V5.6H82.1V5.4Q82.1 4.9 81.8 4.6Q81.5 4.3 81 4.2V4.2ZM82.3 3.4V3.9L80.4 3.7Q80.7 3.7 81.1 3.6Q81.5 3.6 81.8 3.5Q82.1 3.5 82.3 3.4ZM76.8 12.8V13.9H75.6V13.7Q75.6 13.7 75.7 13.7Q75.8 13.7 75.8 13.7Q76.2 13.7 76.4 13.5Q76.7 13.2 76.7 12.8ZM78.2 12.8H78.3Q78.3 13.2 78.6 13.5Q78.9 13.7 79.3 13.7Q79.3 13.7 79.4 13.7Q79.5 13.7 79.5 13.7V13.9H78.2ZM74 4.2V4.2Q73.5 4.3 73.2 4.6Q72.9 4.9 72.9 5.4V5.6H72.8V4.2ZM72.8 3.4Q72.9 3.5 73.2 3.5Q73.5 3.6 73.9 3.6Q74.3 3.7 74.6 3.7L72.8 3.9ZM89.1 3.5Q90.3 3.5 91.4 3.8Q92.4 4.2 93.2 4.9Q94 5.6 94.5 6.6Q94.9 7.6 94.9 8.8Q94.9 10 94.5 11Q94 12 93.2 12.7Q92.4 13.4 91.4 13.8Q90.3 14.1 89.1 14.1Q87.8 14.1 86.8 13.8Q85.7 13.4 84.9 12.7Q84.1 12 83.7 11Q83.2 10 83.2 8.8Q83.2 7.6 83.7 6.6Q84.1 5.6 84.9 4.9Q85.7 4.2 86.8 3.8Q87.8 3.5 89.1 3.5ZM89.1 13.6Q90.2 13.6 91.2 13Q92.1 12.4 92.7 11.3Q93.2 10.2 93.2 8.8Q93.2 7.4 92.7 6.3Q92.1 5.2 91.2 4.6Q90.2 4 89.1 4Q87.9 4 87 4.6Q86 5.2 85.5 6.3Q84.9 7.4 84.9 8.8Q84.9 10.2 85.5 11.3Q86 12.4 87 13Q87.9 13.6 89.1 13.6ZM101.6 3.4 111.2 12.3 111.4 14.1 101.8 5.3ZM101.7 12.8V13.9H100.4V13.7Q100.4 13.7 100.6 13.7Q100.7 13.7 100.7 13.7Q101.1 13.7 101.4 13.5Q101.6 13.2 101.6 12.8ZM102.9 12.8Q102.9 13.2 103.2 13.5Q103.5 13.7 103.9 13.7Q103.9 13.7 104 13.7Q104.2 13.7 104.2 13.7V13.9H102.9V12.8ZM101.6 3.4 102.9 4.9 102.9 13.9H101.6V5.5Q101.6 4.7 101.6 4Q101.5 3.4 101.5 3.4ZM111.4 3.7V12Q111.4 12.6 111.4 13.1Q111.5 13.5 111.5 13.8Q111.6 14.1 111.6 14.1H111.4L110.1 12.6V3.7ZM111.4 4.8V3.7H112.6V3.9Q112.6 3.9 112.5 3.9Q112.3 3.9 112.3 3.9Q112 3.9 111.7 4.1Q111.4 4.4 111.4 4.8ZM110.1 4.8Q110.1 4.4 109.8 4.1Q109.6 3.9 109.2 3.9Q109.2 3.9 109 3.9Q108.9 3.9 108.9 3.9V3.7H110.2V4.8ZM119.7 3.5Q121 3.5 122 3.8Q123.1 4.2 123.9 4.9Q124.7 5.6 125.1 6.6Q125.6 7.6 125.6 8.8Q125.6 10 125.1 11Q124.7 12 123.9 12.7Q123.1 13.4 122 13.8Q121 14.1 119.7 14.1Q118.5 14.1 117.4 13.8Q116.4 13.4 115.6 12.7Q114.8 12 114.3 11Q113.9 10 113.9 8.8Q113.9 7.6 114.3 6.6Q114.8 5.6 115.6 4.9Q116.4 4.2 117.4 3.8Q118.5 3.5 119.7 3.5ZM119.7 13.6Q120.9 13.6 121.8 13Q122.8 12.4 123.3 11.3Q123.9 10.2 123.9 8.8Q123.9 7.4 123.3 6.3Q122.8 5.2 121.8 4.6Q120.9 4 119.7 4Q118.6 4 117.6 4.6Q116.7 5.2 116.2 6.3Q115.6 7.4 115.6 8.8Q115.6 10.2 116.2 11.3Q116.7 12.4 117.6 13Q118.6 13.6 119.7 13.6ZM132.1 3.8V13.9H130.5V3.8ZM136.1 3.7V4.2H126.5V3.7ZM136.1 4.2V5.6H135.9V5.4Q135.9 4.9 135.6 4.6Q135.3 4.3 134.8 4.2V4.2ZM136.1 3.4V3.9L134.2 3.7Q134.5 3.7 134.9 3.6Q135.3 3.6 135.6 3.5Q135.9 3.5 136.1 3.4ZM130.6 12.8V13.9H129.3V13.7Q129.4 13.7 129.5 13.7Q129.6 13.7 129.6 13.7Q129.9 13.7 130.2 13.5Q130.5 13.2 130.5 12.8ZM132 12.8H132.1Q132.1 13.2 132.4 13.5Q132.7 13.7 133.1 13.7Q133.1 13.7 133.1 13.7Q133.2 13.7 133.2 13.7V13.9H132ZM127.8 4.2V4.2Q127.3 4.3 127 4.6Q126.7 4.9 126.7 5.4V5.6H126.5V4.2ZM126.5 3.4Q126.7 3.5 127 3.5Q127.3 3.6 127.7 3.6Q128.1 3.7 128.4 3.7L126.5 3.9ZM147 3.7V13.9H145.5V3.7ZM139.8 3.7V13.9H138.3V3.7ZM145.6 8.6V9.1H139.6V8.6ZM138.3 12.8V13.9H137.1V13.7Q137.1 13.7 137.2 13.7Q137.3 13.7 137.3 13.7Q137.7 13.7 138 13.5Q138.2 13.2 138.3 12.8ZM139.8 12.8H139.8Q139.8 13.2 140.1 13.5Q140.4 13.7 140.8 13.7Q140.8 13.7 140.9 13.7Q141 13.7 141 13.7V13.9H139.8ZM139.8 4.8V3.7H141V3.9Q141 3.9 140.9 3.9Q140.8 3.9 140.8 3.9Q140.4 3.9 140.1 4.1Q139.8 4.4 139.8 4.8ZM138.3 4.8H138.3Q138.2 4.4 138 4.1Q137.7 3.9 137.3 3.9Q137.3 3.9 137.2 3.9Q137.1 3.9 137.1 3.9V3.7H138.3ZM145.5 12.8V13.9H144.3V13.7Q144.3 13.7 144.4 13.7Q144.5 13.7 144.5 13.7Q144.9 13.7 145.2 13.5Q145.4 13.2 145.5 12.8ZM147 12.8H147Q147 13.2 147.3 13.5Q147.6 13.7 148 13.7Q148 13.7 148.1 13.7Q148.2 13.7 148.2 13.7V13.9H147ZM147 4.8V3.7H148.2V3.9Q148.2 3.9 148.1 3.9Q148 3.9 148 3.9Q147.6 3.9 147.3 4.1Q147 4.4 147 4.8ZM145.5 4.8H145.5Q145.4 4.4 145.2 4.1Q144.9 3.9 144.5 3.9Q144.5 3.9 144.4 3.9Q144.3 3.9 144.3 3.9V3.7H145.5ZM152.7 3.7V13.9H151.1V3.7ZM151.2 12.8V13.9H149.8V13.7Q149.8 13.7 149.9 13.7Q150 13.7 150 13.7Q150.5 13.7 150.8 13.5Q151.1 13.2 151.1 12.8ZM152.6 12.8H152.7Q152.7 13.2 153 13.5Q153.3 13.7 153.8 13.7Q153.8 13.7 153.9 13.7Q154 13.7 154 13.7L154 13.9H152.6ZM152.6 4.8V3.7H154L154 3.9Q154 3.9 153.9 3.9Q153.8 3.9 153.8 3.9Q153.3 3.9 153 4.1Q152.7 4.4 152.7 4.8ZM151.2 4.8H151.1Q151.1 4.4 150.8 4.1Q150.5 3.9 150 3.9Q150 3.9 149.9 3.9Q149.8 3.9 149.8 3.9V3.7H151.2ZM156.5 3.4 166.1 12.3 166.3 14.1 156.7 5.3ZM156.6 12.8V13.9H155.3V13.7Q155.3 13.7 155.4 13.7Q155.6 13.7 155.6 13.7Q156 13.7 156.2 13.5Q156.5 13.2 156.5 12.8ZM157.8 12.8Q157.8 13.2 158.1 13.5Q158.4 13.7 158.7 13.7Q158.7 13.7 158.9 13.7Q159 13.7 159 13.7V13.9H157.8V12.8ZM156.5 3.4 157.8 4.9 157.8 13.9H156.5V5.5Q156.5 4.7 156.4 4Q156.4 3.4 156.4 3.4ZM166.3 3.7V12Q166.3 12.6 166.3 13.1Q166.4 13.5 166.4 13.8Q166.4 14.1 166.4 14.1H166.3L165 12.6V3.7ZM166.2 4.8V3.7H167.5V3.9Q167.5 3.9 167.4 3.9Q167.2 3.9 167.2 3.9Q166.8 3.9 166.6 4.1Q166.3 4.4 166.3 4.8ZM165 4.8Q165 4.4 164.7 4.1Q164.5 3.9 164.1 3.9Q164.1 3.9 163.9 3.9Q163.8 3.9 163.8 3.9V3.7H165V4.8ZM174.4 3.5Q175.2 3.5 175.9 3.6Q176.6 3.7 177.3 3.9Q177.9 4.1 178.4 4.4L178.7 6.9H178.5Q178.3 5.9 177.8 5.3Q177.2 4.6 176.4 4.3Q175.6 4 174.6 4Q173.3 4 172.4 4.6Q171.5 5.2 171 6.3Q170.5 7.3 170.5 8.8Q170.5 10.3 170.9 11.3Q171.4 12.4 172.3 13Q173.2 13.6 174.4 13.6Q175.1 13.6 175.7 13.4Q176.3 13.3 176.8 12.9Q177.3 12.6 177.7 12.1L177.8 9.9Q177.8 9.5 177.6 9.4Q177.4 9.2 177 9.2H176.8V9H180.3V9.2H180.1Q179.3 9.2 179.3 9.9V12Q178.9 12.5 178.2 13Q177.5 13.5 176.5 13.8Q175.6 14.1 174.4 14.1Q172.7 14.1 171.4 13.5Q170.2 12.8 169.5 11.6Q168.8 10.4 168.8 8.8Q168.8 7.1 169.5 5.9Q170.2 4.8 171.4 4.1Q172.7 3.5 174.4 3.5Z" fill="#cfc8bd"></path></g></svg>