<svg version="1.1" xmlns="http://www.w3.org/2000/svg" width="480" height="360" viewBox="0,0,480,360"><rect x="0" y="0" width="480" height="360" fill="#000" fill-opacity="0"></rect><defs><linearGradient id="lava" x1="0" y1="0" x2="0" y2="1"><stop offset="0" stop-color="#ff7a10"></stop><stop offset=".25" stop-color="#e02a06"></stop><stop offset="1" stop-color="#4a0200"></stop></linearGradient></defs><rect x="50" y="336" width="380" height="26" fill="url(#lava)"></rect><rect x="50" y="336" width="380" height="2.5" fill="#ffd27a"></rect><circle cx="105.45" cy="355.86" r="3.03" fill="#ffb347" opacity=".7"></circle><circle cx="149.87" cy="350.94" r="2.4" fill="#ffb347" opacity=".7"></circle><circle cx="295.79" cy="355.04" r="1.69" fill="#ffb347" opacity=".7"></circle><circle cx="66.43" cy="355.7" r="2.37" fill="#ffb347" opacity=".7"></circle><circle cx="336.52" cy="344.03" r="2.39" fill="#ffb347" opacity=".7"></circle><circle cx="321.53" cy="347.2" r="3.39" fill="#ffb347" opacity=".7"></circle><circle cx="387.73" cy="344.43" r="1.55" fill="#ffb347" opacity=".7"></circle><circle cx="255.24" cy="357.15" r="2.26" fill="#ffb347" opacity=".7"></circle><circle cx="135.71" cy="349.91" r="1.56" fill="#ffb347" opacity=".7"></circle><circle cx="137.58" cy="350.13" r="2.49" fill="#ffb347" opacity=".7"></circle><circle cx="141.78" cy="347.23" r="1.94" fill="#ffb347" opacity=".7"></circle><circle cx="225.13" cy="348.06" r="1.54" fill="#ffb347" opacity=".7"></circle><circle cx="364.23" cy="351.79" r="2.78" fill="#ffb347" opacity=".7"></circle><circle cx="124.41" cy="357.9" r="3.22" fill="#ffb347" opacity=".7"></circle><circle cx="100.49" cy="348.66" r="2.94" fill="#ffb347" opacity=".7"></circle><circle cx="317.72" cy="357.11" r="2.34" fill="#ffb347" opacity=".7"></circle><circle cx="361.45" cy="353.38" r="2.11" fill="#ffb347" opacity=".7"></circle><circle cx="272.23" cy="356.35" r="3.19" fill="#ffb347" opacity=".7"></circle><circle cx="241.94" cy="352.25" r="1.57" fill="#ffb347" opacity=".7"></circle><circle cx="145.33" cy="355.16" r="2.33" fill="#ffb347" opacity=".7"></circle><circle cx="119.67" cy="351.68" r="2.91" fill="#ffb347" opacity=".7"></circle></svg>