<svg version="1.1" xmlns="http://www.w3.org/2000/svg" width="115.3" height="28.8" viewBox="0,0,115.3,28.8"><rect x="0" y="0" width="115.3" height="28.8" fill="#000" fill-opacity="0"></rect><g transform="translate(8,8)"><path d="M4.7 2.2V10.6H2.9V2.2ZM7.9 10.1 8.2 10.6H4.7V10.1ZM7.4 6.2V6.8H4.7V6.2ZM8 2.2V2.8H4.7V2.2ZM8.8 8.2 8.2 10.6H5.9L6.3 10.1Q6.9 10.1 7.4 9.9Q7.8 9.7 8.1 9.2Q8.5 8.8 8.6 8.2ZM7.4 6.7V7.9H7.3V7.8Q7.3 7.3 7 7.1Q6.8 6.8 6.3 6.8V6.7ZM7.4 5.1V6.3H6.3V6.2Q6.8 6.2 7 5.9Q7.3 5.6 7.3 5.2V5.1ZM8 2.7V4.1H7.9V4Q7.9 3.4 7.6 3.1Q7.3 2.8 6.7 2.7V2.7ZM8 2V2.4L6.6 2.2Q6.8 2.2 7.1 2.2Q7.4 2.2 7.7 2.1Q7.9 2.1 8 2ZM3 9.8V10.6H2V10.5Q2 10.5 2.1 10.5Q2.2 10.5 2.2 10.5Q2.5 10.5 2.7 10.3Q2.9 10.1 2.9 9.8ZM3 3.1H2.9Q2.9 2.8 2.7 2.6Q2.5 2.4 2.2 2.4Q2.2 2.4 2.1 2.4Q2 2.4 2 2.4V2.2H3ZM12.3 2.2V10.6H10.5V2.2ZM15.5 10.1 15.8 10.6H12.3V10.1ZM16.4 8.2 15.8 10.6H13.4L13.9 10.1Q14.5 10.1 14.9 9.9Q15.4 9.7 15.7 9.2Q16 8.8 16.2 8.2ZM10.5 9.8V10.6H9.6V10.5Q9.6 10.5 9.7 10.5Q9.7 10.5 9.7 10.5Q10.1 10.5 10.3 10.3Q10.5 10.1 10.5 9.8ZM10.5 3.1H10.5Q10.5 2.8 10.3 2.6Q10.1 2.4 9.7 2.4Q9.7 2.4 9.7 2.4Q9.6 2.4 9.6 2.4V2.2H10.5ZM12.3 3.1V2.2H13.2V2.4Q13.2 2.4 13.1 2.4Q13.1 2.4 13.1 2.4Q12.8 2.4 12.5 2.6Q12.3 2.8 12.3 3.1ZM28.1 7.1 28.3 9.2Q28 9.6 27.5 10Q27.1 10.4 26.4 10.6Q25.8 10.8 24.9 10.8Q23.4 10.8 22.3 10.3Q21.2 9.8 20.6 8.8Q20 7.8 20 6.4Q20 5.1 20.6 4.1Q21.2 3.1 22.3 2.6Q23.4 2.1 24.9 2.1Q25.9 2.1 26.6 2.3Q27.4 2.5 27.9 2.7L27.9 4.8H27.8Q27.5 3.6 26.8 3.1Q26 2.6 25.1 2.6Q24.1 2.6 23.4 3Q22.7 3.5 22.4 4.4Q22 5.2 22 6.4Q22 7.6 22.3 8.5Q22.7 9.3 23.3 9.8Q24 10.3 24.9 10.3Q25.8 10.3 26.4 10Q27.1 9.7 27.5 9Q27.9 8.3 28.1 7.1ZM33.1 2 37 10.6H34.9L32.4 4.3ZM30.5 9.8Q30.4 10 30.5 10.2Q30.5 10.3 30.7 10.4Q30.8 10.5 31 10.5H31.1V10.6H28.5V10.5Q28.5 10.5 28.6 10.5Q28.6 10.5 28.6 10.5Q28.9 10.5 29.2 10.3Q29.5 10.2 29.7 9.8ZM33.1 2 33.1 3.5 30.2 10.6H29.3L32.4 3.6Q32.4 3.5 32.5 3.3Q32.6 3.1 32.7 2.9Q32.8 2.6 32.9 2.4Q33 2.1 33 2ZM34.4 7.8V8.3H30.8V7.8ZM34.5 9.8H36.6Q36.8 10.2 37.1 10.3Q37.4 10.5 37.7 10.5Q37.7 10.5 37.7 10.5Q37.8 10.5 37.8 10.5V10.6H34V10.5H34.1Q34.3 10.5 34.5 10.3Q34.7 10.1 34.5 9.8ZM40.6 2.2H42.1Q42.6 2.2 43.2 2.4Q43.7 2.5 44.1 2.7Q44.5 3 44.7 3.4Q45 3.9 45 4.5Q45 5 44.8 5.5Q44.5 6 44.1 6.4Q43.7 6.7 43 6.8Q43.4 6.9 43.7 7.2Q44 7.5 44.2 7.8Q44.2 7.9 44.4 8.1Q44.5 8.3 44.7 8.5Q44.9 8.8 45.1 9.1Q45.3 9.4 45.4 9.6Q45.7 9.9 45.9 10.1Q46.1 10.3 46.4 10.4Q46.6 10.5 46.9 10.5V10.6H45.7Q45.1 10.6 44.6 10.5Q44 10.4 43.6 10.1Q43.2 9.9 42.9 9.4Q42.8 9.2 42.7 9Q42.6 8.8 42.5 8.6Q42.4 8.3 42.2 8.1Q42.1 7.8 42 7.6Q42 7.4 41.9 7.3Q41.8 7 41.6 6.8Q41.3 6.6 41.1 6.5V6.4Q41.1 6.4 41.3 6.4Q41.4 6.4 41.5 6.4Q41.8 6.4 42.1 6.3Q42.4 6.2 42.7 5.9Q42.9 5.6 43 5Q43 4.9 43 4.8Q43.1 4.6 43 4.4Q43 3.6 42.6 3.2Q42.2 2.8 41.6 2.8Q41.5 2.8 41.3 2.8Q41.1 2.8 40.9 2.8Q40.7 2.8 40.7 2.8Q40.7 2.8 40.6 2.6Q40.6 2.5 40.6 2.4Q40.6 2.2 40.6 2.2ZM40.7 2.2V10.6H38.9V2.2ZM38.9 9.8V10.6H38V10.5Q38 10.5 38.1 10.5Q38.1 10.5 38.1 10.5Q38.5 10.5 38.7 10.3Q38.9 10.1 38.9 9.8ZM38.9 3.1H38.9Q38.9 2.8 38.7 2.6Q38.5 2.4 38.1 2.4Q38.1 2.4 38.1 2.4Q38 2.4 38 2.4V2.2H38.9ZM40.7 9.8H40.7Q40.7 10.1 40.9 10.3Q41.2 10.5 41.5 10.5Q41.5 10.5 41.6 10.5Q41.6 10.5 41.6 10.5V10.6H40.7ZM55.1 7.1 55.2 9.2Q54.9 9.6 54.5 10Q54 10.4 53.4 10.6Q52.7 10.8 51.8 10.8Q50.3 10.8 49.2 10.3Q48.2 9.8 47.6 8.8Q47 7.8 47 6.4Q47 5.1 47.5 4.1Q48.1 3.1 49.2 2.6Q50.3 2.1 51.8 2.1Q52.8 2.1 53.6 2.3Q54.3 2.5 54.8 2.7L54.9 4.8H54.8Q54.4 3.6 53.7 3.1Q53 2.6 52 2.6Q51 2.6 50.3 3Q49.7 3.5 49.3 4.4Q48.9 5.2 48.9 6.4Q48.9 7.6 49.3 8.5Q49.6 9.3 50.3 9.8Q50.9 10.3 51.8 10.3Q52.7 10.3 53.4 10Q54 9.7 54.4 9Q54.8 8.3 55 7.1ZM59 2.2V10.6H57.2V2.2ZM62.2 10.1 62.5 10.6H59V10.1ZM61.7 6.2V6.8H59V6.2ZM62.3 2.2V2.8H59V2.2ZM63 8.2 62.5 10.6H60.1L60.6 10.1Q61.2 10.1 61.6 9.9Q62.1 9.7 62.4 9.2Q62.7 8.8 62.9 8.2ZM61.7 6.7V7.9H61.6V7.8Q61.6 7.3 61.3 7.1Q61 6.8 60.6 6.8V6.7ZM61.7 5.1V6.3H60.6V6.2Q61 6.2 61.3 5.9Q61.6 5.6 61.6 5.2V5.1ZM62.3 2.7V4.1H62.2V4Q62.2 3.4 61.9 3.1Q61.5 2.8 61 2.7V2.7ZM62.3 2V2.4L60.8 2.2Q61.1 2.2 61.4 2.2Q61.7 2.2 62 2.1Q62.2 2.1 62.3 2ZM57.2 9.8V10.6H56.3V10.5Q56.3 10.5 56.4 10.5Q56.4 10.5 56.4 10.5Q56.7 10.5 57 10.3Q57.2 10.1 57.2 9.8ZM57.2 3.1H57.2Q57.2 2.8 57 2.6Q56.7 2.4 56.4 2.4Q56.4 2.4 56.4 2.4Q56.3 2.4 56.3 2.4V2.2H57.2ZM66.6 2.2V10.6H64.8V2.2ZM69.8 10.1 70 10.6H66.5V10.1ZM70.6 8.2 70.1 10.6H67.7L68.2 10.1Q68.8 10.1 69.2 9.9Q69.7 9.7 70 9.2Q70.3 8.8 70.5 8.2ZM64.8 9.8V10.6H63.9V10.5Q63.9 10.5 63.9 10.5Q64 10.5 64 10.5Q64.3 10.5 64.6 10.3Q64.8 10.1 64.8 9.8ZM64.8 3.1H64.8Q64.8 2.8 64.6 2.6Q64.3 2.4 64 2.4Q64 2.4 63.9 2.4Q63.9 2.4 63.9 2.4V2.2H64.8ZM66.5 3.1V2.2H67.5V2.4Q67.5 2.4 67.4 2.4Q67.4 2.4 67.4 2.4Q67 2.4 66.8 2.6Q66.6 2.8 66.6 3.1ZM74 2.2V10.6H72.2V2.2ZM77.2 10.1 77.4 10.6H74V10.1ZM76.7 6.2V6.8H74V6.2ZM77.3 2.2V2.8H74V2.2ZM78 8.2 77.5 10.6H75.1L75.6 10.1Q76.2 10.1 76.6 9.9Q77.1 9.7 77.4 9.2Q77.7 8.8 77.9 8.2ZM76.7 6.7V7.9H76.6V7.8Q76.6 7.3 76.3 7.1Q76 6.8 75.6 6.8V6.7ZM76.7 5.1V6.3H75.6V6.2Q76 6.2 76.3 5.9Q76.6 5.6 76.6 5.2V5.1ZM77.3 2.7V4.1H77.2V4Q77.2 3.4 76.9 3.1Q76.5 2.8 76 2.7V2.7ZM77.3 2V2.4L75.8 2.2Q76.1 2.2 76.4 2.2Q76.7 2.2 76.9 2.1Q77.2 2.1 77.3 2ZM72.2 9.8V10.6H71.3V10.5Q71.3 10.5 71.3 10.5Q71.4 10.5 71.4 10.5Q71.7 10.5 72 10.3Q72.2 10.1 72.2 9.8ZM72.2 3.1H72.2Q72.2 2.8 72 2.6Q71.7 2.4 71.4 2.4Q71.4 2.4 71.3 2.4Q71.3 2.4 71.3 2.4V2.2H72.2ZM81.5 2.2H83Q83.5 2.2 84.1 2.4Q84.6 2.5 85 2.7Q85.4 3 85.6 3.4Q85.9 3.9 85.9 4.5Q85.9 5 85.6 5.5Q85.4 6 85 6.4Q84.6 6.7 83.9 6.8Q84.3 6.9 84.6 7.2Q84.9 7.5 85.1 7.8Q85.1 7.9 85.2 8.1Q85.4 8.3 85.6 8.5Q85.7 8.8 86 9.1Q86.2 9.4 86.3 9.6Q86.6 9.9 86.8 10.1Q87 10.3 87.3 10.4Q87.5 10.5 87.8 10.5V10.6H86.6Q86 10.6 85.5 10.5Q84.9 10.4 84.5 10.1Q84.1 9.9 83.8 9.4Q83.7 9.2 83.6 9Q83.5 8.8 83.4 8.6Q83.3 8.3 83.1 8.1Q83 7.8 82.9 7.6Q82.9 7.4 82.8 7.3Q82.7 7 82.5 6.8Q82.2 6.6 82 6.5V6.4Q82 6.4 82.1 6.4Q82.3 6.4 82.4 6.4Q82.7 6.4 83 6.3Q83.3 6.2 83.6 5.9Q83.8 5.6 83.9 5Q83.9 4.9 83.9 4.8Q83.9 4.6 83.9 4.4Q83.9 3.6 83.5 3.2Q83.1 2.8 82.5 2.8Q82.4 2.8 82.2 2.8Q82 2.8 81.8 2.8Q81.6 2.8 81.6 2.8Q81.6 2.8 81.5 2.6Q81.5 2.5 81.5 2.4Q81.5 2.2 81.5 2.2ZM81.6 2.2V10.6H79.8V2.2ZM79.8 9.8V10.6H78.9V10.5Q78.9 10.5 79 10.5Q79 10.5 79 10.5Q79.4 10.5 79.6 10.3Q79.8 10.1 79.8 9.8ZM79.8 3.1H79.8Q79.8 2.8 79.6 2.6Q79.4 2.4 79 2.4Q79 2.4 79 2.4Q78.9 2.4 78.9 2.4V2.2H79.8ZM81.6 9.8H81.6Q81.6 10.1 81.8 10.3Q82.1 10.5 82.4 10.5Q82.4 10.5 82.5 10.5Q82.5 10.5 82.5 10.5V10.6H81.6ZM92.6 2.1Q94.1 2.1 95.1 2.6Q96.2 3.1 96.8 4.1Q97.3 5.1 97.3 6.4Q97.3 7.8 96.8 8.8Q96.2 9.7 95.1 10.3Q94.1 10.8 92.6 10.8Q91.2 10.8 90.1 10.3Q89 9.7 88.5 8.8Q87.9 7.8 87.9 6.4Q87.9 5.1 88.5 4.1Q89 3.1 90.1 2.6Q91.2 2.1 92.6 2.1ZM92.6 10.3Q93.5 10.3 94.1 9.8Q94.7 9.4 95 8.5Q95.4 7.6 95.4 6.4Q95.4 5.3 95 4.4Q94.7 3.5 94.1 3.1Q93.5 2.6 92.6 2.6Q91.8 2.6 91.2 3.1Q90.5 3.5 90.2 4.4Q89.9 5.3 89.9 6.4Q89.9 7.6 90.2 8.5Q90.5 9.4 91.2 9.8Q91.8 10.3 92.6 10.3Z" fill="#e8c860"></path></g></svg>